<svg id="Capa_1" enable-background="new 0 0 512.052 512.052" height="512" viewBox="0 0 512.052 512.052" width="512" xmlns="http://www.w3.org/2000/svg"><g><g><g><g><g><path d="m12.871 415.009 211.025-356.65c14.516-24.533 49.745-24.533 64.261 0l211.025 356.65c14.885 25.157-3.085 57.084-32.131 57.084h-422.05c-29.045 0-47.015-31.927-32.13-57.084z" fill="#fd4755"/></g><g><g><path d="m183.12 472.093h283.931c29.045 0 47.016-31.926 32.131-57.084l-154.184-260.583c6.107 26.05 9.052 55.524 5.851 87.673-15.142 152.102-153.673 223.02-162.648 227.424-1.724.892-3.412 1.742-5.081 2.57z" fill="#fb2b3a"/></g><g><path d="m44.995 442.158c-6.142-.211-9.557-5.908-6.312-11.807l211.025-356.649c3.261-5.111 9.453-5.044 12.624 0l211.024 356.649c3.259 5.922-.127 11.592-6.312 11.807z" fill="#fed402"/></g><g><path d="m351.981 225.217c-.197 5.541-.563 11.167-1.132 16.881-10.071 101.167-74.721 166.406-119.537 200.059h235.733c6.185-.214 9.571-5.885 6.312-11.807z" fill="#f7bc09"/></g></g></g><g><path d="m193.003 370.836v-111.039l63.072-45 62.975 45v111.024z" fill="#fff"/></g><g><path d="m256.076 214.797-63.073 45v8.596l33.073-23.596 41.299 29.512c13.603 9.72 21.675 25.41 21.675 42.129v54.388l30-.003v-111.026z" fill="#e8edf2"/></g><g><path d="m341.552 284.899c-6.277 6.538-16.536 7.124-23.516 1.341l-57.65-47.762c-3.335-2.774-8.175-2.774-11.51 0l-57.268 47.63c-6.978 5.804-17.255 5.227-23.541-1.32-6.952-7.242-6.301-18.861 1.417-25.28l69.161-57.521c9.265-7.705 22.708-7.705 31.972 0l69.496 57.613c7.737 6.415 8.399 18.05 1.439 25.299z" fill="#554e56"/></g><g><g><path d="m238.526 238.478c-3.335-2.774-8.175-2.774-11.51 0l-57.269 47.63c-.041.034-.085.062-.126.095 6.328 5.17 15.554 5.254 21.986-.095l52.104-43.335z" fill="#433f43"/></g><g><path d="m340.113 259.601-69.496-57.613c-7.689-6.395-18.248-7.464-26.916-3.245 1.777.865 3.48 1.935 5.056 3.245l69.497 57.613c7.737 6.414 8.398 18.049 1.438 25.298-.493.513-1.018.977-1.556 1.416 6.977 5.696 17.168 5.092 23.416-1.416 6.96-7.25 6.298-18.884-1.439-25.298z" fill="#433f43"/></g></g><g><path d="m234.843 371.513v-50.599c0-4.971 4.029-9 9-9h24.366c4.971 0 9 4.029 9 9v50.87z" fill="#b5adb6"/></g><g><path d="m420.401 340.852c-16.891 7.167-22.103 10.587-22.103 10.587-5.672 3.728-10.71 7.86-19.274 9.945-2.782.677-5.789 1.055-9.139 1.055-28.412 0-28.412-22-56.825-22-28.409 0-28.409 22-56.817 22-28.409 0-28.409-22-56.819-22-22.705 0-27.263 14.054-42.682 19.696-5.6 2.049-10.182 2.15-14.134 2.304-23.705.924-45.187-17.678-49.941-21.516-.24-.193-.489-.38-.733-.571l-53.251 89.999c-3.246 5.899.169 11.595 6.312 11.807h422.05c6.185-.214 9.571-5.885 6.312-11.807z" fill="#17b2f9"/></g><g><path d="m473.356 430.352-28.5-48.167-24.455-41.332c-16.891 7.167-22.103 10.587-22.103 10.587-5.672 3.728-10.71 7.86-19.274 9.945-2.782.677-5.789 1.055-9.139 1.055-25.723 0-28.16-18.031-49.474-21.445-25.338 46.764-61.092 80.131-89.099 101.163h235.733c2.319-.08 4.245-.928 5.574-2.269.221-.223.427-.46.614-.71 1.687-2.245 1.957-5.496.123-8.827z" fill="#1596ed"/></g><g><path d="m473.356 430.352-28.354-47.92c-22.84 1.643-37.438 8.132-46.705 14.009-5.95 3.773-15.227 11-28.413 11-28.412 0-28.412-22-56.825-22-28.409 0-28.409 22-56.817 22-28.409 0-28.409-22-56.819-22-28.408 0-28.408 22-56.816 22-17.212 0-24.705-11.943-42.681-19.696-7.102-3.063-17.713-6.308-32.304-6.303l-28.94 48.911c-3.246 5.899.169 11.595 6.312 11.807h422.05c6.186-.216 9.572-5.887 6.312-11.808z" fill="#bdecfd"/></g><g><path d="m473.356 430.352-13.135-22.2-15.218-25.72c-22.84 1.643-37.438 8.132-46.705 14.009-5.95 3.773-15.227 11-28.413 11-28.412 0-28.412-22-56.825-22-20.087 0-25.979 10.993-37.746 17.437-15.11 16.056-30.462 29.113-44.003 39.281h235.733c2.319-.08 4.245-.928 5.574-2.269.221-.223.427-.46.614-.71 1.688-2.246 1.958-5.497.124-8.828z" fill="#8ae0fb"/></g></g></g><g><path d="m505.637 411.19-211.025-356.65c-8.182-13.826-22.606-22.081-38.586-22.081s-30.404 8.254-38.586 22.081l-211.024 356.65c-8.425 14.239-8.56 31.322-.362 45.698 8.107 14.217 22.668 22.705 38.948 22.705h422.049c16.28 0 30.841-8.488 38.948-22.705 8.197-14.375 8.062-31.459-.362-45.698zm-12.668 38.268c-5.404 9.477-15.094 15.135-25.918 15.135h-422.049c-10.824 0-20.514-5.658-25.918-15.135-5.495-9.636-5.404-21.086.242-30.629l211.024-356.65c5.453-9.217 15.052-14.719 25.676-14.719s20.223 5.502 25.676 14.719l211.024 356.649c5.647 9.543 5.738 20.994.243 30.63z"/><path d="m32.119 426.671c-2.785 5.063-2.89 10.827-.28 15.418 2.56 4.505 7.384 7.309 12.904 7.499.086.003 422.309.004 422.309.004 11.199-.018 18.907-12.045 12.766-23.126l-98.846-167.056c-2.11-3.566-6.71-4.743-10.274-2.635-3.564 2.109-4.745 6.709-2.636 10.274l41.325 69.842c-5.55 2.335-10.704 5.137-15.379 8.397-8.612 6.006-14.534 9.652-24.122 9.652-11.642 0-17.017-4.162-23.82-9.43-5.244-4.061-10.973-8.493-19.516-10.857v-37.284c1.291.203 2.593.315 3.896.315 6.555 0 13.086-2.563 17.913-7.591h-.001c4.756-4.954 7.26-11.727 6.87-18.583-.39-6.855-3.646-13.301-8.932-17.684l-69.487-57.605c-12.042-10.015-29.522-10.016-41.564 0l-69.16 57.521c-5.273 4.386-8.519 10.83-8.903 17.679-.384 6.848 2.12 13.614 6.871 18.563 5.703 5.94 13.771 8.424 21.451 7.327v37.473c-8.298 2.393-13.926 6.737-19.078 10.727-6.804 5.269-12.177 9.43-23.816 9.43-9.07 0-15.622-4.47-23.207-9.645-4.801-3.275-10.039-6.844-16.223-9.271l152.846-258.329 96.148 162.501c2.11 3.566 6.713 4.745 10.274 2.635 3.564-2.109 4.745-6.709 2.636-10.274l-96.29-162.741c-.035-.06-.071-.119-.108-.177-2.895-4.596-7.613-7.347-12.623-7.359-5.091-.018-9.704 2.659-12.676 7.329 0 0-211.23 356.992-211.268 357.061zm237.59-74.359c-3.593 1.63-7.779 2.628-13.465 2.628-5.917 0-10.211-1.079-13.9-2.828v-31.198c0-.827.673-1.5 1.5-1.5h24.365c.827 0 1.5.673 1.5 1.5zm-1.5-47.898h-24.365c-9.098 0-16.5 7.402-16.5 16.5v20.794c-6.397-4.502-14.291-8.518-26.841-8.741v-43.341l54.564-45.381c.556-.462 1.363-.462 1.929.009l54.554 45.197v43.528c-12.578.314-20.44 4.463-26.841 9.034v-21.098c0-9.099-7.403-16.501-16.5-16.501zm-93.337-24.819c-1.904-1.984-2.868-4.589-2.715-7.334.154-2.746 1.403-5.227 3.519-6.986l69.16-57.521c6.483-5.394 15.896-5.394 22.39.008l69.497 57.613c2.119 1.757 3.373 4.239 3.529 6.987.156 2.749-.809 5.357-2.715 7.343 0 0 0 0-.001 0-3.536 3.685-9.388 4.018-13.319.76l-57.64-47.753c-3.057-2.543-6.804-3.814-10.551-3.814s-7.494 1.271-10.551 3.814l-57.269 47.63c-3.933 3.273-9.79 2.943-13.334-.747zm-129.891 154.976c.038-.147 26.989-45.802 26.989-45.802 9.409-.123 17.56 1.721 24.272 5.508 2.738 1.545 5.66 3.559 8.754 5.69 9.684 6.671 21.734 14.974 37.612 14.974 4.143 0 7.5-3.358 7.5-7.5s-3.357-7.5-7.5-7.5c-11.211 0-20.306-6.266-29.102-12.326-3.379-2.328-6.57-4.526-9.894-6.402-6.78-3.825-14.482-6.178-22.998-7.056l14.774-24.969c5.523 1.655 10.424 4.996 15.558 8.498 8.419 5.744 17.961 12.254 31.661 12.254 16.769 0 25.392-6.678 33-12.57 6.804-5.269 12.177-9.43 23.816-9.43 11.641 0 17.015 4.162 23.818 9.43 7.608 5.892 16.232 12.57 33.001 12.57s25.392-6.678 33-12.57c11.415-11.816 34.676-12.776 47.638 0 7.609 5.892 16.233 12.57 33.004 12.57 13.89 0 22.669-5.352 32.701-12.348 4.334-3.021 9.2-5.586 14.518-7.657l15.636 26.426c-18.526 2.746-31.487 7.498-39.393 14.446-4.316 3.793-14.449 9.134-23.462 9.134-11.642 0-17.017-4.162-23.82-9.43-7.609-5.892-16.233-12.57-33.004-12.57-16.77 0-25.393 6.678-33.001 12.57-6.804 5.269-12.177 9.43-23.816 9.43-11.64 0-17.014-4.161-23.817-9.43-7.608-5.892-16.232-12.57-33.002-12.57-16.768 0-25.392 6.678-33 12.57l-.802.621c-3.278 2.531-3.884 7.241-1.353 10.52 2.532 3.28 7.242 3.885 10.521 1.353l.818-.633c6.803-5.269 12.177-9.43 23.815-9.43 11.641 0 17.015 4.162 23.818 9.43 7.608 5.892 16.232 12.57 33.001 12.57s25.392-6.678 33-12.57c6.804-5.268 12.177-9.43 23.817-9.43 11.642 0 17.017 4.162 23.82 9.43 7.609 5.892 16.233 12.57 33.004 12.57 12.862 0 26.311-6.669 33.362-12.866 4.46-3.919 14.631-9.007 37.793-11.686 0 0 25.976 43.947 26.14 44.204-.053.007-422.142-.014-422.197-.023z"/></g></g></svg>