<?xml version="1.0" encoding="iso-8859-1"?>
<!-- Generator: Adobe Illustrator 19.0.0, SVG Export Plug-In . SVG Version: 6.00 Build 0)  -->
<svg version="1.1" id="Capa_1" xmlns="http://www.w3.org/2000/svg" xmlns:xlink="http://www.w3.org/1999/xlink" x="0px" y="0px"
	 viewBox="0 0 480 480" style="enable-background:new 0 0 480 480;" xml:space="preserve">
<path style="fill:#FFD884;" d="M195.951,248h96v144h-96V248z"/>
<g>
	<path style="fill:#A9BFD1;" d="M435.951,223.2c-2.116,0.002-4.147-0.835-5.648-2.328L243.951,35.288L57.599,220.864
		c-3.133,3.119-8.201,3.109-11.32-0.024c-3.119-3.133-3.109-8.201,0.024-11.32l192-191.2c3.122-3.112,8.174-3.112,11.296,0
		l192,191.2c3.137,3.111,3.158,8.177,0.046,11.314C440.14,222.352,438.089,223.204,435.951,223.2L435.951,223.2z"/>
	<path style="fill:#A9BFD1;" d="M403.951,400c-4.418,0-8-3.582-8-8V239.664c0-4.418,3.582-8,8-8s8,3.582,8,8V392
		C411.951,396.418,408.369,400,403.951,400z"/>
	<path style="fill:#A9BFD1;" d="M83.951,400c-4.418,0-8-3.582-8-8V232c0-4.418,3.582-8,8-8s8,3.582,8,8v160
		C91.951,396.418,88.369,400,83.951,400z"/>
	<path style="fill:#A9BFD1;" d="M395.951,135.2c-4.418,0-8-3.582-8-8V26.4c0.273-5.434-3.881-10.073-9.312-10.4h-13.376
		c-5.431,0.327-9.585,4.966-9.312,10.4v49.688c0,4.418-3.582,8-8,8s-8-3.582-8-8V26.4C339.678,12.131,350.995,0.328,365.263,0
		h13.376c14.268,0.328,25.585,12.131,25.312,26.4v100.8C403.951,131.618,400.369,135.2,395.951,135.2z"/>
	<path style="fill:#A9BFD1;" d="M275.951,135.2h-64c-4.418-0.001-7.999-3.583-7.998-8.002c0-2.121,0.843-4.155,2.342-5.654l32-32
		c3.178-3.069,8.242-2.982,11.312,0.196c2.994,3.1,2.994,8.015,0,11.116L231.263,119.2h44.688c4.418,0,8,3.582,8,8
		S280.369,135.2,275.951,135.2L275.951,135.2z"/>
</g>
<path style="fill:#2273AF;" d="M11.951,383.2l8-8c17.673-17.672,46.327-17.672,64,0c17.662,17.673,46.306,17.682,63.979,0.021
	c0.007-0.007,0.014-0.014,0.021-0.021c17.673-17.672,46.327-17.672,64,0c17.662,17.673,46.306,17.682,63.979,0.021
	c0.007-0.007,0.014-0.014,0.021-0.021c17.673-17.672,46.327-17.672,64,0c17.662,17.673,46.306,17.682,63.979,0.021
	c0.007-0.007,0.014-0.014,0.021-0.021c17.673-17.672,46.327-17.672,64,0l8,8V480h-464V383.2z"/>
<g>
	<path style="fill:#88D0EF;" d="M11.951,442.744l8-8c17.673-17.672,46.327-17.672,64,0s46.327,17.672,64,0s46.327-17.672,64,0
		s46.327,17.672,64,0s46.327-17.672,64,0s46.327,17.672,64,0s46.327-17.672,64,0l8,8V480h-464v-40"/>
	<path style="fill:#88D0EF;" d="M51.951,56c-2.122,0-4.156-0.844-5.656-2.344l-32-32c-3.069-3.178-2.981-8.243,0.197-11.312
		c3.1-2.994,8.015-2.994,11.115,0l32,32c3.124,3.125,3.123,8.19-0.002,11.314C56.105,55.157,54.072,56,51.951,56z"/>
	<path style="fill:#88D0EF;" d="M83.951,88c-2.122,0-4.156-0.844-5.656-2.344l-8-8c-3.069-3.178-2.982-8.243,0.196-11.312
		c3.1-2.994,8.015-2.994,11.116,0l8,8c3.124,3.125,3.123,8.19-0.002,11.314C88.105,87.157,86.072,88,83.951,88z"/>
	<path style="fill:#88D0EF;" d="M139.951,80c-2.122,0-4.156-0.844-5.656-2.344l-48-48c-3.069-3.178-2.981-8.243,0.197-11.312
		c3.1-2.994,8.015-2.994,11.115,0l48,48c3.124,3.125,3.123,8.19-0.002,11.314C144.105,79.157,142.072,80,139.951,80L139.951,80z"/>
	<path style="fill:#88D0EF;" d="M75.951,136c-2.122,0-4.156-0.844-5.656-2.344l-24-24c-3.178-3.069-3.266-8.134-0.197-11.312
		c3.069-3.178,8.134-3.266,11.312-0.197c0.067,0.064,0.132,0.13,0.197,0.197l24,24c3.124,3.125,3.123,8.19-0.002,11.314
		C80.105,135.157,78.072,136,75.951,136L75.951,136z"/>
	<path style="fill:#88D0EF;" d="M27.951,88c-2.122,0-4.156-0.844-5.656-2.344l-16-16c-3.069-3.178-2.981-8.243,0.196-11.312
		c3.1-2.994,8.015-2.994,11.116,0l16,16c3.124,3.125,3.123,8.19-0.002,11.314C32.105,87.157,30.072,88,27.951,88z"/>
	<path style="fill:#88D0EF;" d="M155.951,32c-2.122,0-4.156-0.844-5.656-2.344l-16-16c-3.069-3.178-2.981-8.243,0.197-11.312
		c3.1-2.994,8.015-2.994,11.115,0l16,16c3.124,3.125,3.123,8.19-0.002,11.314C160.105,31.157,158.072,32,155.951,32L155.951,32z"/>
</g>
<g>
</g>
<g>
</g>
<g>
</g>
<g>
</g>
<g>
</g>
<g>
</g>
<g>
</g>
<g>
</g>
<g>
</g>
<g>
</g>
<g>
</g>
<g>
</g>
<g>
</g>
<g>
</g>
<g>
</g>
</svg>
