<svg id="Layer_6" enable-background="new 0 0 64 64" height="512" viewBox="0 0 64 64" width="512" xmlns="http://www.w3.org/2000/svg"><g><g><g><path d="m20.46 8.16c.99-.73 2.21-1.16 3.54-1.16.77 0 1.51.15 2.19.42.71-3.11 3.49-5.42 6.81-5.42 3.87 0 7 3.13 7 7 0 .36-.04.72-.09 1.07 3.44.44 6.09 3.37 6.09 6.93 0 1.96-.8 3.73-2.1 5h-22.91c-.64 0-1.26.23-1.74.65l-1.34 1.35h-10.91c-2.76 0-5-2.24-5-5s2.24-5 5-5c0-4.42 3.58-8 8-8 2.11 0 4.03.82 5.46 2.16z" fill="#e6e9ed"/></g><g><path d="m54 46v4.12l-6 .24v-7.36h-10v7.76l-3 .12c-.09 0-.19.01-.28.01-.94 0-1.87-.2-2.72-.57v-.01-14.31h4 18z" fill="#ccd1d9"/></g><g><path d="m56 35v1h-2-18l-13.24-13.34c-.49-.42-1.12-.66-1.77-.66h22.91 3.1z" fill="#fcd770"/></g><g><path d="m22.76 22.66c-.49-.42-1.12-.66-1.77-.66-.64 0-1.26.23-1.74.65l-1.34 1.35-9.91 10v2h28z" fill="#fcd770"/></g><g><path d="m21 26 9 10h-18z" fill="#ffeaa7"/></g><g><path d="m10 36h2 18 2v14.31c-.79-.33-1.51-.82-2.12-1.43-1.06-1.06-2.42-1.73-3.88-1.95v-6.93h-10v6.43l-6-.29v-4.14z" fill="#e6e9ed"/></g><g><path d="m48 43v7.36l-10 .4v-7.76z" fill="#4fc1e9"/></g><g><path d="m26 40v6.93c-.22-.03-.43-.05-.65-.06l-9.35-.44v-6.43z" fill="#aab2bd"/></g><g><path d="m10 46.14 6 .29 9.35.44c.22.01.43.03.65.06 1.46.22 2.82.89 3.88 1.95.61.61 1.33 1.1 2.12 1.43v.01c.85.37 1.78.57 2.72.57.09 0 .19-.01.28-.01l3-.12 10-.4 6-.24v-4.12h2.5c1.52 0 2.9.62 3.89 1.61s1.61 2.37 1.61 3.89c0 3.04-2.46 5.5-5.5 5.5h-8.5v2c0 1.66-1.34 3-3 3h-31c-.55 0-1.05-.22-1.41-.59-.37-.36-.59-.86-.59-1.41 0-1.1.9-2 2-2h-6c-.55 0-1.05-.22-1.41-.59-.37-.36-.59-.86-.59-1.41 0-1.1.9-2 2-2h3c.55 0 1.05-.22 1.41-.59.37-.36.59-.86.59-1.41 0-1.1-.9-2-2-2h-5c-1.1 0-2.1-.45-2.83-1.17-.72-.73-1.17-1.73-1.17-2.83 0-2.21 1.79-4 4-4h4z" fill="#69d6f4"/></g></g><g><path d="m56.5 45h-1.5v-8h2v-2.313l-9.476-13.687h-1.6c.698-1.203 1.076-2.569 1.076-4 0-3.673-2.521-6.846-6.005-7.742.003-.087.005-.173.005-.258 0-4.411-3.589-8-8-8-3.38 0-6.321 2.079-7.479 5.169-.5-.112-1.008-.169-1.521-.169-1.255 0-2.431.336-3.451.917-1.58-1.24-3.521-1.917-5.549-1.917-4.65 0-8.488 3.545-8.953 8.076-2.857.458-5.047 2.94-5.047 5.924 0 3.309 2.691 6 6 6h8.507l-8.507 8.588v3.412h2v4h-3c-2.757 0-5 2.243-5 5s2.243 5 5 5h5c.552 0 1 .449 1 1s-.448 1-1 1h-3c-1.654 0-3 1.346-3 3s1.346 3 3 3h3.184c-.112.314-.184.648-.184 1 0 1.654 1.346 3 3 3h31c2.206 0 4-1.794 4-4v-1h7.5c3.584 0 6.5-2.916 6.5-6.5s-2.916-6.5-6.5-6.5zm-3.5 4.159-4 .16v-7.319h-12v7.799l-2.038.082c-.674.026-1.335-.068-1.962-.262v-12.619h20zm-6 .24-8 .32v-5.719h8zm7.784-14.399h-18.368l-11.917-12h21.977zm-47.784-12c-2.206 0-4-1.794-4-4s1.794-4 4-4h1v-1c0-3.86 3.141-7 7-7 1.41 0 2.765.426 3.915 1.204-1.184 1.254-1.915 2.94-1.915 4.796h2c0-2.757 2.243-5 5-5 .619 0 1.232.117 1.821.348l1.078.422.262-1.128c.633-2.733 3.034-4.642 5.839-4.642 3.309 0 6 2.691 6 6 0 .277-.024.567-.078.914l-.156 1.012 1.016.132c2.974.387 5.218 2.942 5.218 5.942 0 1.495-.546 2.898-1.537 4h-22.471c-.879 0-1.73.315-2.456.942l-1.048 1.058zm2 11.411 10.898-11.007c.612-.525 1.643-.473 2.15-.036l11.55 11.632h-3.152l-9.446-10.495-9.445 10.495h-2.555zm18.755.589h-13.51l6.755-7.505zm3.245 2v11.545c-.144-.119-.284-.243-.417-.376-.999-1-2.237-1.696-3.583-2.045v-7.124h-12v6.38l-4-.191v-8.189zm-6 8.856-8-.381v-4.475h8zm31.5 10.144h-9.5v3c0 1.103-.897 2-2 2h-31c-.552 0-1-.449-1-1s.448-1 1-1h4 3v-2h-3-4-6c-.552 0-1-.449-1-1s.448-1 1-1h3c1.654 0 3-1.346 3-3s-1.346-3-3-3h-5c-1.654 0-3-1.346-3-3s1.346-3 3-3h3v2.094l-1.952-.093-.096 1.998 18.351.874c1.46.069 2.833.677 3.866 1.71 1.473 1.473 3.484 2.302 5.561 2.302.104 0 .208-.002.313-.006l21.998-.88-.08-1.998-1.961.078v-2.079h1.5c2.481 0 4.5 2.019 4.5 4.5s-2.019 4.5-4.5 4.5z"/><path d="m32.832 55.945c-.812-1.218-2.171-1.945-3.635-1.945h-3.197v2h3.197c.794 0 1.53.395 1.971 1.055.812 1.218 2.171 1.945 3.635 1.945h4.197v-2h-4.197c-.794 0-1.531-.395-1.971-1.055z"/><path d="m10 14h2c0-1.654 1.346-3 3-3v-2c-2.757 0-5 2.243-5 5z"/><path d="m35 9h2c0-2.206-1.794-4-4-4v2c1.103 0 2 .897 2 2z"/></g></g></svg>