<svg xmlns="http://www.w3.org/2000/svg" viewBox="0 0 800 800"><defs><style>.cls-1{fill:#C2E6F7;}.cls-2{fill:#2086c3;}.cls-3{fill:#62c2eb;}.cls-4{fill:#1d1d1b;opacity:0.2;}.cls-5{fill:#bd2e22;}.cls-5,.cls-7{fill-rule:evenodd;}.cls-6{fill:#c2e6f7;}.cls-7{fill:#e55136;}.cls-8{fill:#fff;}.cls-9{fill:#b7e3ff;}.cls-10{fill:#efefef;}.cls-11{fill:#ffe5c5;}.cls-12{fill:#199adb;}.cls-13{fill:#4dc6ff;}</style></defs><g id="BACKGROUND"><rect class="cls-1" width="800" height="800"/></g><g id="OBJECTS"><polygon class="cls-2" points="494.93 748.04 798.77 790.9 686.19 505.46 494.93 748.04"/><rect class="cls-2" y="19" width="743.95" height="743.95" rx="85.32"/><rect class="cls-3" x="40.56" y="59.56" width="662.83" height="662.83" rx="44.76"/><path class="cls-4" d="M674.83,388.39C655.2,533.9,541.12,649.44,396.26,671.33a326.63,326.63,0,0,1-49.94,3.78c-10.68,0-21.22-.53-31.64-1.53L174.74,533.64v-.07C113.52,480.78,94.62,396.28,87,311.78,132,295,159.62,290.09,208.9,288.5c5.17.2,10.08.4,14.79.66l5.57-29.38L210,240.55l-8.35-22.88,86.75-31.51L303,108.63l40.66,7.69,36.54,36.48,28.59-10.35L574.35,287.9Z"/><polygon class="cls-5" points="287.34 191.76 329.89 191.05 343.7 116.31 303 108.64 287.34 191.76"/><path class="cls-6" d="M539,287.16l-.37,1.82-12,64.09-5.17,27.37-.61,3.22-4.68,24.69-.42,2.37-4.87,25.78-.36,1.89L506,461.86l-.91,4.74-5.42,28.76h-1.15c-15.33,0-23.47,4.26-32.11,10.1L419,496.52l-6.51-1.22-26.33-5-16.41-3-75.47-14.23-7.54-1.46-33-6.2-5.83-1.1-49.56-9.36-5.6-1,.49-2.43,3.71-19.88,1.09-5.84,4-21,.06-.12.85-4.62,4.92-26.15,26.76-142.17.37-1.76,169-61.42Z"/><polygon class="cls-7" points="403.56 170.28 558.25 306.2 574.33 287.9 408.8 142.45 201.69 217.67 210 240.57 403.56 170.28"/><rect class="cls-8" x="392.95" y="296.46" width="107.57" height="77.82" transform="translate(34.43 712.27) rotate(-79.33)"/><rect class="cls-8" x="249.47" y="269.42" width="107.57" height="77.82" transform="translate(-55.91 549.23) rotate(-79.33)"/><rect class="cls-9" x="402.18" y="305.39" width="89.32" height="60" transform="translate(34.5 712.39) rotate(-79.33)"/><rect class="cls-9" x="258.49" y="278.31" width="89.32" height="60" transform="translate(-55.98 549.12) rotate(-79.33)"/><rect class="cls-8" x="444.78" y="282.9" width="8.64" height="66.75" transform="translate(55.13 699.03) rotate(-79.33)"/><rect class="cls-8" x="303.68" y="256.31" width="8.64" height="66.75" transform="translate(-33.71 538.71) rotate(-79.33)"/><rect class="cls-8" x="408.23" y="343.34" width="72.51" height="9.12" transform="translate(20.28 720.26) rotate(-79.33)"/><rect class="cls-8" x="264.53" y="316.26" width="72.51" height="9.12" transform="translate(-70.19 556.98) rotate(-79.33)"/><rect class="cls-10" x="427.05" y="343.46" width="14.41" height="103.25" transform="matrix(0.19, -0.98, 0.98, 0.19, -34.42, 748.65)"/><rect class="cls-10" x="285.95" y="316.87" width="14.41" height="103.25" transform="translate(-123.26 588.32) rotate(-79.33)"/><path class="cls-11" d="M506,461.86l-.91,4.74-5.42,28.76h-1.15c-15.33,0-23.47,4.26-32.11,10.1L419,496.52l-6.51-1.22-26.33-5-16.41-3-75.47-14.23-7.54-1.46-33-6.2-5.83-1.1-49.56-9.36-5.6-1,.49-2.43,3.71-19.88,1.09-5.84,4-21v-.12l27.79,5.23,47.12,8.87,9,1.71,163.21,30.77,9.24,1.7Z"/><path class="cls-12" d="M587.28,409.84c-27,0-41.45-10-53.09-18-10.2-7-18.27-12.6-35.71-12.6s-25.49,5.56-35.7,12.6c-11.64,8-26.13,18-53.09,18s-41.44-10-53.08-18c-10.21-7-18.27-12.6-35.7-12.6s-25.49,5.56-35.7,12.6c-11.64,8-26.12,18-53.08,18s-41.43-10-53.06-18c-10.21-7-18.27-12.59-35.69-12.59V348.61c27,0,41.44,10,53.07,18,10.2,7,18.26,12.6,35.68,12.6s25.49-5.56,35.7-12.61c11.63-8,26.12-18,53.08-18s41.45,10,53.08,18c10.21,7.05,18.27,12.61,35.7,12.61s25.5-5.56,35.71-12.61c11.64-8,26.12-18,53.08-18s41.45,10,53.09,18c10.21,7.05,18.28,12.61,35.71,12.61Z"/><path class="cls-13" d="M587.28,438.87c-27,0-41.44-10-53.08-18-10.21-7-18.28-12.6-35.72-12.6s-25.49,5.56-35.7,12.6c-11.64,8-26.13,18-53.09,18s-41.44-10-53.08-18c-10.21-7-18.27-12.6-35.7-12.6s-25.49,5.56-35.7,12.6c-11.63,8-26.12,18-53.08,18s-41.43-10-53.06-18c-10.21-7-18.27-12.6-35.69-12.6V377.65c27,0,41.44,10,53.07,18,10.2,7,18.26,12.6,35.68,12.6s25.49-5.56,35.7-12.6c11.63-8,26.12-18,53.08-18s41.45,10,53.08,18c10.21,7,18.27,12.6,35.7,12.6s25.5-5.56,35.71-12.6c11.64-8,26.12-18,53.08-18s41.46,10,53.09,18c10.22,7,18.28,12.6,35.71,12.6Z"/><path class="cls-12" d="M587.28,467.91c-27,0-41.44-10-53.08-18-10.21-7-18.28-12.6-35.71-12.6s-25.5,5.56-35.71,12.6c-11.64,8-26.13,18-53.09,18s-41.44-10-53.08-18c-10.21-7-18.27-12.6-35.7-12.6s-25.49,5.56-35.7,12.6c-11.63,8-26.12,18-53.08,18s-41.43-10-53.06-18c-10.21-7-18.27-12.6-35.69-12.6V406.68c27,0,41.44,10,53.07,18,10.2,7,18.26,12.6,35.68,12.6s25.49-5.56,35.7-12.6c11.64-8,26.12-18,53.08-18s41.45,10,53.08,18c10.21,7,18.27,12.6,35.7,12.6s25.5-5.56,35.71-12.6c11.64-8,26.12-18,53.09-18s41.45,10,53.09,18c10.21,7,18.27,12.6,35.7,12.6Z"/><path class="cls-13" d="M587.28,496.94c-27,0-41.44-10-53.08-18-10.21-7-18.28-12.6-35.71-12.6s-25.5,5.56-35.71,12.6c-11.64,8-26.12,18-53.09,18s-41.44-10-53.08-18c-10.21-7-18.27-12.6-35.7-12.6s-25.49,5.56-35.7,12.6c-11.63,8-26.12,18-53.08,18s-41.43-10-53.06-18c-10.2-7-18.27-12.6-35.69-12.6V435.71c27,0,41.44,10,53.07,18,10.2,7,18.27,12.6,35.68,12.6s25.49-5.56,35.7-12.6c11.64-8,26.12-18,53.08-18s41.45,10,53.08,18c10.21,7,18.28,12.6,35.7,12.6s25.5-5.56,35.71-12.6c11.64-8,26.12-18,53.09-18s41.45,10,53.09,18c10.21,7,18.27,12.6,35.7,12.6Z"/><path class="cls-12" d="M587.29,495.36V526c-26.94,0-41.47-10-53.09-18-10-6.87-17.94-12.34-34.54-12.59h-1.15c-15.33,0-23.47,4.26-32.11,10.1-1.21.79-2.43,1.64-3.65,2.49-11.61,8-26.08,18-53.08,18s-41.41-10-53-18c-10.21-7.05-18.3-12.59-35.75-12.59s-25.48,5.54-35.7,12.59c-11.61,8-26.08,18-53.08,18s-41.41-10-53-18c-10.21-7.05-18.3-12.59-35.69-12.59V464.78c26.94,0,41.41,10,53.08,18,10.16,7.05,18.25,12.58,35.64,12.58s25.54-5.53,35.69-12.58c5.41-3.71,11.37-7.85,18.91-11.19,8.82-4,19.71-6.81,34.18-6.81,27,0,41.47,10,53.08,18a94.77,94.77,0,0,0,12.16,7.54c6.15,3.1,13.2,5,23.54,5,1,0,1.88,0,2.79-.06,15.57-.55,23.29-5.84,33-12.52,11.62-8,26.09-18,53.09-18,2.37,0,4.68.06,6.87.24,22.62,1.52,35.57,10.46,46.21,17.76C561.81,489.83,569.84,495.36,587.29,495.36Z"/></g></svg>